<svg width="24" height="24" viewBox="0 0 24 24" fill="none" xmlns="http://www.w3.org/2000/svg">
<path d="M8.79 13.8C7.65 13.8 6.675 13.395 5.865 12.585C5.055 11.775 4.65 10.8 4.65 9.66C4.65 8.52 5.055 7.545 5.865 6.735C6.675 5.925 7.65 5.52 8.79 5.52C9.93 5.52 10.905 5.925 11.715 6.735C12.525 7.545 12.93 8.52 12.93 9.66C12.93 10.8 12.525 11.775 11.715 12.585C10.905 13.395 9.93 13.8 8.79 13.8ZM8.79 12C9.45 12 10.005 11.77 10.455 11.31C10.905 10.85 11.13 10.3 11.13 9.66C11.13 9 10.905 8.445 10.455 7.995C10.005 7.545 9.45 7.32 8.79 7.32C8.15 7.32 7.6 7.545 7.14 7.995C6.68 8.445 6.45 9 6.45 9.66C6.45 10.3 6.68 10.85 7.14 11.31C7.6 11.77 8.15 12 8.79 12ZM17.82 15.18C16.94 15.18 16.19 14.87 15.57 14.25C14.95 13.63 14.64 12.88 14.64 12C14.64 11.12 14.95 10.37 15.57 9.75C16.19 9.13 16.94 8.82 17.82 8.82C18.7 8.82 19.45 9.13 20.07 9.75C20.69 10.37 21 11.12 21 12C21 12.88 20.69 13.63 20.07 14.25C19.45 14.87 18.7 15.18 17.82 15.18ZM10.26 22.08C11.22 20.3 12.445 19.085 13.935 18.435C15.425 17.785 16.72 17.46 17.82 17.46C18.28 17.46 18.705 17.495 19.095 17.565C19.485 17.635 19.89 17.73 20.31 17.85C20.83 17.11 21.275 16.23 21.645 15.21C22.015 14.19 22.2 13.12 22.2 12C22.2 9.16 21.21 6.75 19.23 4.77C17.25 2.79 14.84 1.8 12 1.8C9.16 1.8 6.75 2.79 4.77 4.77C2.79 6.75 1.8 9.16 1.8 12C1.8 13.02 1.95 14.005 2.25 14.955C2.55 15.905 2.96 16.76 3.48 17.52C4.24 17.12 5.09 16.8 6.03 16.56C6.97 16.32 7.89 16.2 8.79 16.2C9.33 16.2 9.855 16.235 10.365 16.305C10.875 16.375 11.35 16.49 11.79 16.65C11.41 16.85 11.06 17.065 10.74 17.295C10.42 17.525 10.13 17.77 9.87 18.03C9.67 18.01 9.48 18 9.3 18H8.79C8.11 18 7.375 18.095 6.585 18.285C5.795 18.475 5.11 18.71 4.53 18.99C5.29 19.79 6.165 20.465 7.155 21.015C8.145 21.565 9.18 21.92 10.26 22.08ZM12 24C10.36 24 8.81 23.685 7.35 23.055C5.89 22.425 4.615 21.565 3.525 20.475C2.435 19.385 1.575 18.11 0.945 16.65C0.315 15.19 0 13.64 0 12C0 10.34 0.315 8.785 0.945 7.335C1.575 5.885 2.435 4.615 3.525 3.525C4.615 2.435 5.89 1.575 7.35 0.945C8.81 0.315 10.36 0 12 0C13.66 0 15.215 0.315 16.665 0.945C18.115 1.575 19.385 2.435 20.475 3.525C21.565 4.615 22.425 5.885 23.055 7.335C23.685 8.785 24 10.34 24 12C24 13.64 23.685 15.19 23.055 16.65C22.425 18.11 21.565 19.385 20.475 20.475C19.385 21.565 18.115 22.425 16.665 23.055C15.215 23.685 13.66 24 12 24Z" fill="white"/>
</svg>
