<svg width="35" height="28" viewBox="0 0 35 28" fill="none" xmlns="http://www.w3.org/2000/svg">
<path d="M16.275 16.975C16.275 16.0475 15.4525 15.225 14.525 15.225H1.75C0.8225 15.225 0 16.0475 0 16.975V26.25C0 27.1775 0.8225 28 1.75 28H14.525C15.4525 28 16.275 27.1775 16.275 26.25V16.975ZM35 16.975C35 16.0475 34.1775 15.225 33.25 15.225H20.475C19.5475 15.225 18.725 16.0475 18.725 16.975V26.25C18.725 27.1775 19.5475 28 20.475 28H33.25C34.1775 28 35 27.1775 35 26.25V16.975ZM35 1.75C35 0.8225 34.1775 0 33.25 0H20.475C19.5475 0 18.725 0.8225 18.725 1.75V11.025C18.725 11.9525 19.5475 12.775 20.475 12.775H33.25C34.1775 12.775 35 11.9525 35 11.025V1.75ZM16.275 1.75C16.275 0.8225 15.4525 0 14.525 0H1.75C0.8225 0 0 0.8225 0 1.75V11.025C0 11.9525 0.8225 12.775 1.75 12.775H14.525C15.4525 12.775 16.275 11.9525 16.275 11.025V1.75Z" fill="white"/>
</svg>
